<svg width="0" height="0" class="hidden">
   <symbol fill="none" xmlns="http://www.w3.org/2000/svg" viewBox="0 0 36 52" id="bag">
    <rect x="2" y="10" width="32" height="40" rx="3" stroke="#fff" stroke-width="4"></rect>
    <path d="M11 5a3 3 0 013-3h8a3 3 0 013 3v5H11V5z" stroke="#fff" stroke-width="4"></path>
  </symbol>
  <symbol xmlns="http://www.w3.org/2000/svg" viewBox="0 0 24 15" id="menu">
    <path d="M1.5 1.765h21C23 1.765 24 .487 24 0H0c0 .487 1 1.765 1.5 1.765zm0 6.673h21c.5 0 1.5-1.278 1.5-1.765H0c0 .487 1 1.765 1.5 1.765zM1.5 15h21c.5 0 1.5-1.278 1.5-1.765H0C0 13.722 1 15 1.5 15z"></path>
  </symbol>
   <symbol fill="none" xmlns="http://www.w3.org/2000/svg" viewBox="0 0 22 22" id="more_info">
    <circle cx="11" cy="11" r="10" stroke="#fff" stroke-width="2"></circle>
    <path d="M10.995 8.031c.754 0 1.26-.494 1.26-1.17 0-.624-.506-1.092-1.26-1.092S9.734 6.263 9.734 6.9s.507 1.131 1.26 1.131zM9.98 16h2.028V9.006H9.98V16z" fill="#fff"></path>
  </symbol>  
  <symbol fill="none" xmlns="http://www.w3.org/2000/svg" viewBox="0 0 37 54" id="screen">
    <rect x="2.326" y="2.376" width="32" height="49" rx="3" stroke="#fff" stroke-width="4"></rect>
    <circle cx="17.826" cy="39.876" r="4.5" fill="#fff"></circle>
  </symbol>
  <symbol xmlns="http://www.w3.org/2000/svg" viewBox="0 0 62 74" id="security">
    <path d="M61.92 19.054c-.038-1.998-.074-3.886-.074-5.712 0-1.43-1.156-2.59-2.582-2.59-11.046 0-19.455-3.183-26.465-10.019a2.577 2.577 0 00-3.6 0c-7.01 6.836-15.418 10.02-26.463 10.02a2.586 2.586 0 00-2.582 2.59c0 1.826-.036 3.714-.074 5.712-.354 18.593-.84 44.056 30.073 54.802a2.575 2.575 0 001.691 0c30.915-10.746 30.43-36.21 30.076-54.803zM31 68.66C4.488 59.002 4.889 37.844 5.244 19.154c.022-1.122.042-2.21.057-3.275 10.344-.438 18.616-3.582 25.698-9.768 7.082 6.186 15.355 9.33 25.7 9.768.015 1.066.036 2.152.057 3.273.355 18.691.756 39.85-25.757 49.51z" fill="#fff"></path>
    <path d="M39.892 28.002L27.427 40.503l-5.32-5.335a2.578 2.578 0 00-3.651 0 2.596 2.596 0 000 3.663l7.145 7.167a2.571 2.571 0 001.826.758c.661 0 1.322-.253 1.826-.758l14.291-14.333a2.595 2.595 0 000-3.662 2.577 2.577 0 00-3.651 0z" fill="#fff"></path>
  </symbol>
  <symbol xmlns="http://www.w3.org/2000/svg" viewBox="0 0 134 102" id="speed">
    <path d="M96.827 64.733c0 16.575-13.507 30.011-30.169 30.011S36.49 81.308 36.49 64.733c0-16.576 13.508-30.012 30.17-30.012 16.661 0 30.168 13.437 30.168 30.012z" fill="#C4C4C4"></path>
    <path d="M59.993 68.631c-1.87-4.026-.136-8.793 3.855-10.628 3.983-1.831 8.735-.046 10.605 3.98l39.443 21.99L70.164 72.81c-3.892 1.5-8.37-.302-10.171-4.18z" fill="#030104"></path>
    <path d="M20.043 20.668C32.495 8.226 49.05 1.374 66.658 1.374c17.61 0 34.165 6.852 46.616 19.294 12.452 12.443 19.309 28.985 19.309 46.58 0 11.362-2.865 22.28-8.243 31.942h-12.322l-9.012-5.2 3.98-6.888 11.588 6.686a57.892 57.892 0 006.407-26.54c0-1.69-.077-3.363-.218-5.018l-13.818 2.435-1.382-7.834 13.98-2.463c-2.498-11.02-8.131-20.866-15.908-28.548L98.163 37.1l-6.098-5.113 9.543-11.365A58.025 58.025 0 0070.638 9.11v15.086h-7.96V9.109a58.035 58.035 0 00-30.97 11.514l9.544 11.364-6.098 5.113-9.472-11.28c-7.778 7.682-13.41 17.527-15.908 28.548l13.98 2.464-1.383 7.833L8.555 62.23a58.788 58.788 0 00-.219 5.018 57.881 57.881 0 006.406 26.54l11.589-6.685 3.98 6.888-9.012 5.199H8.977C3.598 89.528.734 78.61.734 67.248c0-17.595 6.858-34.138 19.309-46.58z" fill="#030104"></path>
  </symbol>
  <symbol xmlns="http://www.w3.org/2000/svg" viewBox="0 0 25 23" id="star">
    <path d="M12.5 0l2.806 8.637h9.082l-7.347 5.338 2.806 8.638-7.347-5.338-7.347 5.338 2.806-8.638L.612 8.637h9.082L12.5 0z" fill="#fff"></path>
  </symbol>
  <symbol xmlns="http://www.w3.org/2000/svg" viewBox="0 0 22 22" id="steering-wheel">
    <path d="M11 0C4.958 0 0 4.958 0 11s4.958 11 11 11 11-4.958 11-11S17.042 0 11 0zm0 19.379c-4.62 0-8.379-3.759-8.379-8.379 0-4.62 3.759-8.379 8.379-8.379 4.62 0 8.379 3.759 8.379 8.379 0 4.62-3.759 8.379-8.379 8.379z"></path>
    <path d="M12.29 9.066a1.289 1.289 0 11-2.579 0 1.289 1.289 0 012.578 0z"></path>
    <path d="M11 11.645a2.573 2.573 0 01-2.44-1.781c-1.705.185-3.296.543-4.646 1.062 0 .025-.004.049-.004.074 0 .745.117 1.463.331 2.138 1.055-.55 2.087-.849 2.892-.849.673 0 1.19.19 1.58.582.9.905 1.003 2.74 1.005 5.097.416.076.844.122 1.282.122.438 0 .866-.046 1.283-.122.001-2.354.104-4.191 1.005-5.097.39-.391.906-.582 1.58-.582.793 0 1.828.287 2.893.845.213-.674.329-1.39.329-2.134 0-.024-.004-.048-.004-.072-1.463-.565-3.081-.893-4.647-1.065A2.573 2.573 0 0111 11.645z"></path>
  </symbol>
  <symbol fill="none" xmlns="http://www.w3.org/2000/svg" viewBox="0 0 34 20" id="vector">
    <path d="M3 3l14 14L31 3" stroke="#E51937" stroke-width="3" stroke-linecap="square"></path>
  </symbol>
  <symbol fill="none" xmlns="http://www.w3.org/2000/svg" viewBox="0 0 44 34" id="wifi">
    <path d="M7.154 15.623a2.458 2.458 0 000 3.41 2.33 2.33 0 003.336 0 16.053 16.053 0 0123.03 0 2.324 2.324 0 001.663.709c.602 0 1.205-.24 1.663-.708a2.457 2.457 0 000-3.41 20.687 20.687 0 00-29.692 0z" fill="#fff"></path>
    <path d="M13.52 22.132a2.458 2.458 0 000 3.41 2.33 2.33 0 003.336 0 7.161 7.161 0 0110.288 0 2.324 2.324 0 001.663.708c.603 0 1.205-.239 1.664-.707a2.446 2.446 0 000-3.402 11.803 11.803 0 00-16.95-.01zM22 34c1.733 0 3.138-1.437 3.138-3.208 0-1.772-1.405-3.209-3.138-3.209-1.733 0-3.138 1.437-3.138 3.209C18.862 32.563 20.267 34 22 34zM43.312 9.004a29.723 29.723 0 00-42.624 0 2.458 2.458 0 000 3.411 2.33 2.33 0 003.336 0 25.058 25.058 0 0135.96 0 2.324 2.324 0 001.664.708c.603 0 1.205-.24 1.664-.708a2.457 2.457 0 000-3.41z" fill="#fff"></path>
  </symbol>
</svg>